<?xml version="1.0" encoding="UTF-8"?>
<svg width="800" height="1212" viewBox="0 0 196 297" xmlns="http://www.w3.org/2000/svg" role="img" aria-label="Sudaf Engineering Consultancy logo">
  <title>Sudaf Engineering Consultancy Logo</title>
  <desc>Clean vector rendering prepared from the provided Sudaf logo image.</desc>
  <g fill-rule="evenodd">
    <path d="M 53.0 85.0 L 50.0 86.0 L 2.0 131.0 L 2.0 163.0 L 21.0 181.0 L 23.0 181.0 L 24.0 177.0 L 23.0 141.0 L 32.0 131.0 L 35.0 132.0 L 35.0 205.0 L 32.0 206.0 L 5.0 181.0 L 2.0 180.0 L 2.0 211.0 L 92.0 296.0 L 97.0 296.0 L 151.0 242.0 L 151.0 146.0 L 133.0 129.0 L 131.0 130.0 L 131.0 230.0 L 120.0 240.0 L 119.0 112.0 L 115.0 111.0 L 99.0 127.0 L 99.0 264.0 L 93.0 269.0 L 88.0 264.0 L 88.0 129.0 L 70.0 110.0 L 67.0 112.0 L 67.0 239.0 L 65.0 240.0 L 55.0 231.0 L 55.0 86.0 Z M 94.0 0.0 L 67.0 26.0 L 67.0 92.0 L 92.0 116.0 L 95.0 116.0 L 119.0 92.0 L 119.0 56.0 L 121.0 55.0 L 130.0 64.0 L 131.0 111.0 L 167.0 145.0 L 160.0 154.0 L 162.0 230.0 L 183.0 209.0 L 183.0 157.0 L 195.0 145.0 L 195.0 142.0 L 151.0 102.0 L 151.0 55.0 Z M 93.0 30.0 L 99.0 36.0 L 99.0 83.0 L 94.0 88.0 L 88.0 84.0 L 88.0 35.0 Z" fill="#8B4A16"/>
    <path d="M 54.0 38.0 L 51.0 38.0 L 33.0 55.0 L 32.0 76.0 L 34.0 86.0 L 37.0 85.0 L 55.0 66.0 L 56.0 46.0 Z M 32.0 132.0 L 28.0 136.0 L 31.0 134.0 L 34.0 135.0 L 34.0 202.0 L 31.0 203.0 L 27.0 201.0 L 34.0 205.0 L 34.0 132.0 Z" fill="#F28A45"/>
  </g>
</svg>
